<svg width="50" height="48" viewBox="0 0 50 48" fill="none" xmlns="http://www.w3.org/2000/svg">
<g clip-path="url(#clip0_30_7)">
<path d="M24.924 0C11.3527 0 0.347824 11.0029 0.347824 24.5762C0.347824 35.4346 7.38965 44.6468 17.1545 47.8965C18.3828 48.124 18.8337 47.3634 18.8337 46.7142C18.8337 46.1282 18.8109 44.1922 18.8003 42.1387C11.9632 43.6253 10.5205 39.239 10.5205 39.239C9.40254 36.3983 7.79174 35.643 7.79174 35.643C5.56194 34.1177 7.95982 34.149 7.95982 34.149C10.4277 34.3224 11.7272 36.6816 11.7272 36.6816C13.9191 40.4387 17.4764 39.3525 18.8789 38.7246C19.0994 37.1362 19.7364 36.052 20.4392 35.4383C14.9805 34.8168 9.24219 32.7095 9.24219 23.2926C9.24219 20.6095 10.2022 18.4171 11.7744 16.696C11.5192 16.077 10.678 13.5774 12.0124 10.1922C12.0124 10.1922 14.0762 9.53168 18.7727 12.7114C20.733 12.1668 22.8354 11.8937 24.924 11.8844C27.0126 11.8937 29.1166 12.1668 31.0807 12.7114C35.7714 9.53168 37.8324 10.1922 37.8324 10.1922C39.1701 13.5774 38.3285 16.077 38.0733 16.696C39.6491 18.4171 40.6026 20.6095 40.6026 23.2926C40.6026 32.7319 34.8533 34.8103 29.3808 35.4187C30.2623 36.1814 31.0477 37.677 31.0477 39.9699C31.0477 43.2582 31.0192 45.9048 31.0192 46.7142C31.0192 47.3682 31.4616 48.1346 32.7074 47.8932C42.4669 44.6399 49.4998 35.431 49.4998 24.5762C49.4998 11.0029 38.4965 0 24.924 0ZM9.55241 35.0093C9.49828 35.1314 9.30619 35.168 9.1312 35.0842C8.95294 35.004 8.85283 34.8376 8.91062 34.7151C8.96352 34.5893 9.15602 34.5543 9.33387 34.6386C9.51253 34.7187 9.61427 34.8868 9.55241 35.0093ZM10.7613 36.088C10.6441 36.1966 10.415 36.1462 10.2595 35.9744C10.0987 35.8031 10.0686 35.574 10.1875 35.4637C10.3083 35.355 10.5305 35.4059 10.6917 35.5772C10.8524 35.7506 10.8838 35.9781 10.7613 36.088ZM11.5906 37.4681C11.44 37.5727 11.1938 37.4746 11.0416 37.2561C10.891 37.0375 10.891 36.7754 11.0449 36.6704C11.1975 36.5654 11.44 36.6599 11.5943 36.8768C11.7445 37.099 11.7445 37.3611 11.5906 37.4681ZM12.9932 39.0665C12.8585 39.215 12.5716 39.1751 12.3616 38.9725C12.1467 38.7743 12.0869 38.493 12.222 38.3445C12.3583 38.1955 12.6469 38.2375 12.8585 38.4385C13.0718 38.6363 13.1369 38.9195 12.9932 39.0665ZM14.8059 39.6061C14.7465 39.7986 14.4702 39.8861 14.1918 39.8043C13.9138 39.72 13.7319 39.4945 13.7881 39.3C13.8459 39.1063 14.1234 39.0151 14.4038 39.1026C14.6814 39.1865 14.8637 39.4103 14.8059 39.6061ZM16.8688 39.8349C16.8758 40.0376 16.6397 40.2057 16.3475 40.2094C16.0537 40.2159 15.816 40.0519 15.8127 39.8524C15.8127 39.6477 16.0435 39.4813 16.3373 39.4764C16.6295 39.4707 16.8688 39.6335 16.8688 39.8349ZM18.8954 39.7573C18.9304 39.955 18.7274 40.1581 18.4372 40.2122C18.1519 40.2643 17.8878 40.1422 17.8516 39.9461C17.8161 39.7434 18.0229 39.5403 18.3078 39.4878C18.5983 39.4374 18.8584 39.5562 18.8954 39.7573Z" fill="#1A1C20"/>
</g>
<defs>
<clipPath id="clip0_30_7">
<rect width="49.152" height="48" fill="white" transform="translate(0.347824)"/>
</clipPath>
</defs>
</svg>
