<svg width="48" height="48" viewBox="0 0 48 48" fill="none" xmlns="http://www.w3.org/2000/svg">
<path fill-rule="evenodd" clip-rule="evenodd" d="M48 24C48 37.2548 37.2548 48 24 48C10.7452 48 0 37.2548 0 24C0 10.7452 10.7452 0 24 0C37.2548 0 48 10.7452 48 24ZM17.9948 34V19.8114H13.2788V34H17.9948ZM15.6368 17.8742C17.2814 17.8742 18.305 16.7846 18.305 15.423C18.2743 14.0308 17.2814 12.9715 15.668 12.9715C14.0548 12.9715 13 14.0308 13 15.423C13 16.7846 14.0234 17.8742 15.606 17.8742H15.6368ZM25.3203 34H20.6043C20.6043 34 20.6663 21.1427 20.6045 19.8114H25.3204V21.8202C25.3098 21.8366 25.2993 21.8529 25.2889 21.8691H25.3204V21.8202C25.9472 20.8534 27.0689 19.4784 29.5706 19.4784C32.6734 19.4784 35 21.5063 35 25.8644V34H30.2844V26.4094C30.2844 24.502 29.6017 23.2009 27.8952 23.2009C26.5924 23.2009 25.8164 24.0784 25.4755 24.9256C25.351 25.2288 25.3203 25.6524 25.3203 26.0765V34Z" fill="#1A1C20"/>
</svg>
